
<svg width="0" height="0" class="hidden">

<!-- [ ICONS ] -->
  <!-- [ icon: paperplane ] -->
  <symbol fill="none" xmlns="http://www.w3.org/2000/svg" viewBox="0 0 30 27" id="ico-send">
    <path d="M11.1848 20.6753V26.1199C11.1848 26.5002 11.429 26.8371 11.7906 26.9569C11.8809 26.9862 11.9737 27.0003 12.0652 27.0003C12.3399 27.0003 12.6052 26.8712 12.7743 26.6411L15.9591 22.307L11.1848 20.6753Z" fill="#EDEDF2"></path>
    <path d="M28.7171 0.163277C28.4471 -0.0280698 28.0926 -0.0538957 27.7991 0.0998862L1.38622 13.8933C1.07396 14.0565 0.88966 14.3899 0.915486 14.7409C0.942486 15.093 1.17609 15.3936 1.50831 15.5074L8.8511 18.0172L24.4887 4.64643L12.3881 19.2252L24.6942 23.4313C24.7857 23.4618 24.882 23.4783 24.9782 23.4783C25.1379 23.4783 25.2964 23.4348 25.4361 23.3503C25.6591 23.2141 25.8105 22.9852 25.8493 22.7281L29.0775 1.01084C29.1257 0.682144 28.9871 0.355798 28.7171 0.163277Z" fill="#EDEDF2"></path>
  </symbol>

</svg>