
<svg width="0" height="0" class="hidden">

<!-- [ ICONS ] -->
  <!-- [ icon: paperplane ] -->
  <symbol fill="none" xmlns="http://www.w3.org/2000/svg" viewBox="0 0 30 27" id="ico-send">
    <path d="M11.1848 20.6753V26.1199C11.1848 26.5002 11.429 26.8371 11.7906 26.9569C11.8809 26.9862 11.9737 27.0003 12.0652 27.0003C12.3399 27.0003 12.6052 26.8712 12.7743 26.6411L15.9591 22.307L11.1848 20.6753Z" fill="#EDEDF2"></path>
    <path d="M28.7171 0.163277C28.4471 -0.0280698 28.0926 -0.0538957 27.7991 0.0998862L1.38622 13.8933C1.07396 14.0565 0.88966 14.3899 0.915486 14.7409C0.942486 15.093 1.17609 15.3936 1.50831 15.5074L8.8511 18.0172L24.4887 4.64643L12.3881 19.2252L24.6942 23.4313C24.7857 23.4618 24.882 23.4783 24.9782 23.4783C25.1379 23.4783 25.2964 23.4348 25.4361 23.3503C25.6591 23.2141 25.8105 22.9852 25.8493 22.7281L29.0775 1.01084C29.1257 0.682144 28.9871 0.355798 28.7171 0.163277Z" fill="#EDEDF2"></path>
  </symbol>


<!-- [ IMAGES ] -->
  <!-- [ img: emojee (negative) ] -->
<symbol fill="none" xmlns="http://www.w3.org/2000/svg" viewBox="0 0 512 512" id="negative">
    <path d="M497 256C497 389.15 389.002 497 256 497C122.844 497 15 389.156 15 256C15 122.998 122.85 15 256 15C388.996 15 497 123.004 497 256Z" stroke="#E24B4B" stroke-width="30"></path>
    <path d="M368.256 278.304C385.744 263.488 387.984 237.392 373.168 219.904C367.472 213.056 360 208.656 352.192 206.8C363.568 200.4 376.48 198.304 389.344 199.232C395.92 199.696 401.696 194.768 402.096 188.064C402.56 181.504 397.632 175.712 390.928 175.312C343.68 171.792 305.36 203.152 299.488 234.704C293.264 273.968 337.616 304.256 368.256 278.304Z" fill="#E24B4B"></path>
    <path d="M143.744 278.304C126.256 263.488 124.016 237.392 138.832 219.904C144.528 213.056 152 208.656 159.808 206.8C148.432 200.4 135.52 198.304 122.656 199.232C116.08 199.696 110.304 194.768 109.904 188.064C109.44 181.504 114.368 175.712 121.072 175.312C168.32 171.792 206.64 203.152 212.512 234.704C218.736 273.968 174.384 304.256 143.744 278.304Z" fill="#E24B4B"></path>
    <path d="M336.768 407.84C283.008 389.12 229.088 389.12 175.168 407.84C161.248 412.8 148.768 396.96 157.888 385.28C177.408 359.84 214.048 342.72 255.968 342.72C298.048 342.72 334.528 359.84 354.208 385.28C363.168 396.96 350.688 412.8 336.768 407.84Z" fill="#E24B4B"></path>
    <path d="M365.008 241.696C361.856 243.696 356.992 241.6 354.032 237.04C351.2 232.448 351.344 227.152 354.496 225.168C357.776 223.136 362.64 225.216 365.472 229.824C368.432 234.368 368.16 239.696 365.008 241.696Z" fill="white" fill-opacity="0.5"></path>
    <path d="M195.584 240.544C192.128 241.936 187.728 239.04 185.648 234.048C183.712 229.04 184.8 223.888 188.256 222.496C191.84 221.088 196.256 223.984 198.192 228.992C200.272 233.968 199.04 239.152 195.584 240.544Z" fill="white" fill-opacity="0.5"></path>
</symbol>

  <!-- [ img: emojee (neutral) ] -->
<symbol fill="none" xmlns="http://www.w3.org/2000/svg" viewBox="0 0 512 512" id="neutral">
    <path d="M497 256C497 389.101 389.101 497 256 497C122.899 497 15 389.101 15 256C15 122.899 122.899 15 256 15C389.101 15 497 122.899 497 256Z" stroke="#FFBC3B" stroke-width="30"></path>
    <path d="M370.56 344.4C370.56 352.096 364.336 358.32 356.64 358.32H155.344C147.728 358.32 141.424 352.096 141.424 344.4C141.424 336.704 147.728 330.48 155.344 330.48H356.64C364.352 330.496 370.56 336.704 370.56 344.4Z" fill="#FFBC3B"></path>
    <path d="M174.512 245.232C195.578 245.232 212.656 228.154 212.656 207.088C212.656 186.021 195.578 168.944 174.512 168.944C153.446 168.944 136.368 186.021 136.368 207.088C136.368 228.154 153.446 245.232 174.512 245.232Z" fill="#FFBC3B"></path>
    <path d="M195.868 187.637C192.566 183.199 187.561 181.333 184.69 183.47C181.818 185.606 182.168 190.936 185.47 195.374C188.773 199.812 193.777 201.678 196.649 199.542C199.52 197.405 199.171 192.075 195.868 187.637Z" fill="white" fill-opacity="0.43"></path>
    <path d="M337.44 245.232C358.506 245.232 375.584 228.154 375.584 207.088C375.584 186.021 358.506 168.944 337.44 168.944C316.374 168.944 299.296 186.021 299.296 207.088C299.296 228.154 316.374 245.232 337.44 245.232Z" fill="#FFBC3B"></path>
    <path d="M358.786 187.678C355.483 183.24 350.479 181.375 347.608 183.511C344.737 185.648 345.087 190.977 348.389 195.415C351.692 199.852 356.696 201.718 359.567 199.581C362.438 197.445 362.088 192.115 358.786 187.678Z" fill="white" fill-opacity="0.43"></path>
</symbol>

  <!-- [ img: emojee (positive) ] -->
<symbol fill="none" xmlns="http://www.w3.org/2000/svg" viewBox="0 0 512 512" id="positive">
    <path d="M497 256C497 389.101 389.101 497 256 497C122.899 497 15 389.101 15 256C15 122.899 122.899 15 256 15C389.101 15 497 122.899 497 256Z" stroke="#4BE275" stroke-width="30"></path>
    <path d="M388.368 309.264C410.864 315.424 374.816 435.04 256 435.92C137.184 435.04 101.136 315.424 123.632 309.264C141.616 300.4 189.856 349.52 256 349.52C323.056 349.504 370.384 300.4 388.368 309.264Z" fill="#38444F"></path>
    <path d="M173.344 256.784C171.952 258.496 169.616 258.912 167.696 257.856C153.296 250.288 95.3761 217.856 89.8241 187.664C86.3041 168.576 98.8961 150.224 117.984 146.704C131.744 144.144 145.072 150.016 152.864 160.784C156.176 147.984 166.624 137.744 180.384 135.296C199.472 131.776 217.712 144.368 221.232 163.456C226.784 193.632 184.112 244.512 173.344 256.784Z" fill="#57E87F"></path>
    <path d="M179.424 249.632C176.976 252.624 174.832 255.072 173.344 256.784C171.952 258.496 169.616 258.912 167.696 257.856C153.296 250.288 95.3759 217.856 89.8239 187.664C86.6239 170.496 96.4319 153.952 112.336 148.304C104.224 156.192 100.064 167.936 102.304 179.872C107.744 209.632 163.952 241.52 179.424 249.632Z" fill="#4BE275"></path>
    <path d="M332.752 256.784C334.144 258.496 336.48 258.912 338.4 257.856C352.8 250.288 410.72 217.856 416.272 187.664C419.792 168.576 407.2 150.224 388.112 146.704C374.352 144.144 361.024 150.016 353.232 160.784C349.92 147.984 339.472 137.744 325.712 135.296C306.624 131.776 288.384 144.368 284.864 163.456C279.312 193.632 321.968 244.512 332.752 256.784Z" fill="#57E87F"></path>
    <path d="M326.672 249.632C329.12 252.624 331.264 255.072 332.752 256.784C334.144 258.496 336.48 258.912 338.4 257.856C352.8 250.288 410.72 217.856 416.272 187.664C419.472 170.496 409.664 153.952 393.76 148.304C401.872 156.192 406.032 167.936 403.792 179.872C398.352 209.632 342.128 241.52 326.672 249.632Z" fill="#4BE275"></path>
    <path d="M256 435.92C278.944 435.744 298.768 431.12 315.712 423.776C311.872 412.496 304.976 402.656 295.904 395.28C288.624 389.28 278.624 388.192 269.632 391.104C264.448 392.736 258.624 393.744 252.176 393.744C247.168 393.744 242.544 393.104 238.272 392.112C228.544 389.664 218.368 392.56 211.28 399.664C204.576 406.368 199.44 414.624 196.32 423.808C213.264 431.136 233.072 435.76 256 435.92Z" fill="#57E87F"></path>
    <g opacity="0.75">
      <path opacity="0.2" d="M205.325 159.399C202.526 152.268 196.363 148.016 191.559 149.902C186.756 151.788 185.131 159.097 187.93 166.228C190.729 173.358 196.893 177.61 201.696 175.724C206.5 173.839 208.124 166.53 205.325 159.399Z" fill="white"></path>
    </g>
    <g opacity="0.75">
      <path opacity="0.2" d="M314.228 149.922C309.424 148.036 303.261 152.288 300.462 159.418C297.663 166.549 299.288 173.858 304.091 175.744C308.894 177.63 315.058 173.378 317.857 166.247C320.656 159.116 319.031 151.807 314.228 149.922Z" fill="white"></path>
    </g>
</symbol>
</svg>
</svg>